<svg width="21" height="19" viewBox="0 0 21 19" fill="none" xmlns="http://www.w3.org/2000/svg">
<path d="M4.96864 11.5609C4.96864 11.5609 4.34013 12.1425 4.13565 12.7258C3.93118 13.3074 3.58592 14.7236 3.44346 14.8493C3.301 14.975 2.83003 15.1946 2.6574 15.2733C2.48477 15.3521 2.10767 15.4309 2.10767 15.6974C2.10767 15.9639 2.45293 15.9655 3.05127 15.87C3.64961 15.7745 3.86917 15.7443 3.97978 15.6018C4.0904 15.4594 4.70383 13.2269 4.79768 13.0845C4.89154 12.9437 5.06585 12.5498 5.6005 12.1409C6.13515 11.7319 6.74858 11.2291 6.74858 11.2291L5.74129 10.6006L4.96864 11.5609Z" fill="#B34A4A"/>
<path d="M1.86127 6.18931C1.86127 6.18931 1.68026 5.76528 1.16907 5.89768C0.719896 6.01501 0.476872 6.69212 0.602574 7.00721C0.728276 7.3223 1.08192 7.46309 1.08192 7.46309L1.86127 6.18931Z" fill="#151413"/>
<path d="M2.27028 1.34395C2.14458 1.35736 1.9401 2.18532 1.34176 2.06799C0.899293 1.98084 0.98477 1.36071 1.54624 1.054C2.04905 0.779131 2.37252 0.888073 2.67923 0.99869C3.13176 1.16126 3.58428 1.65904 3.80384 2.24062C4.0234 2.8222 4.28486 3.55295 4.3938 4.41108C4.50442 5.28428 4.44073 5.31613 4.44073 5.31613L4.0167 5.34797C4.0167 5.34797 4.09547 5.12841 3.93792 4.17643C3.8491 3.63843 3.63121 2.96131 3.43512 2.46186C3.21388 1.90374 2.758 1.29032 2.27028 1.34395Z" fill="#D82828"/>
<path d="M5.8486 1.92712C5.73296 1.90701 5.43966 2.31261 5.02735 2.07461C4.66198 1.86343 4.83461 1.3204 5.37764 1.26677C5.72458 1.23157 6.16202 1.4813 6.37655 1.69918C6.70673 2.03774 6.95143 2.59585 7.06037 3.16235C7.17434 3.74728 7.16093 4.29534 6.91958 5.08978C6.6598 5.93952 6.35309 6.29316 6.35309 6.29316L6.02291 5.95461C6.02291 5.95461 6.25085 5.63951 6.49555 4.96408C6.67321 4.47133 6.7788 3.92662 6.66148 3.28805C6.55086 2.69642 6.17878 1.98243 5.8486 1.92712Z" fill="#D82828"/>
<path d="M2.31046 5.52062C1.44898 5.92287 0.332753 7.22849 0.5322 8.73021C0.689746 9.91013 1.55457 11.137 3.22222 11.5141C4.88986 11.8912 5.91224 11.3565 5.91224 11.3565L6.74522 11.2308L7.46926 12.2381L9.62463 12.2532L11.0409 11.6716C11.0409 11.6716 12.028 13.0761 12.3532 13.5706C12.6783 14.0667 13.7577 14.9399 13.7577 14.9399C13.7577 14.9399 14.0493 15.1578 14.3493 15.3254C14.6326 15.4829 15.9935 16.1433 17.2321 16.2019C19.3975 16.3058 20.0495 15.7025 20.1869 15.5298C20.254 15.4444 20.326 15.1075 20.3545 14.9281C20.3763 14.7874 20.6076 13.4549 20.4333 12.4108C20.2925 11.561 19.835 10.0509 18.1204 8.54082C16.4058 7.03072 14.0778 6.65361 12.6147 7.50336C11.2353 8.3045 10.7593 9.46933 10.7593 9.46933C10.7593 9.46933 10.3185 8.30282 9.1235 8.14863C8.14805 8.02292 7.72402 8.52573 7.72402 8.52573C7.72402 8.52573 7.81788 6.40221 5.67927 5.44185C4.11554 4.74295 2.78142 5.30106 2.31046 5.52062Z" fill="#D82828"/>
<path d="M8.5235 8.50888C8.05254 8.63626 7.86315 9.15415 8.03578 9.46924C8.20841 9.78433 8.53523 9.91339 8.9006 9.8145C9.37324 9.6888 9.56096 9.26477 9.45034 8.94967C9.3414 8.63626 8.93245 8.39994 8.5235 8.50888Z" fill="#AFAFAE"/>
<path d="M12.5811 9.24984C12.8007 9.69063 13.4543 9.70236 14.0594 9.32861C14.7197 8.91966 14.7516 8.33808 14.5152 8.05483C14.1901 7.66432 13.5247 7.72466 13.1158 7.99114C12.7068 8.25763 12.2945 8.67496 12.5811 9.24984Z" fill="#AFAFAE"/>
<path d="M3.09653 6.97537C2.8468 7.39773 2.77976 8.13686 3.41162 8.41508C4.13567 8.73352 4.58317 8.21395 4.74909 7.80165C4.90664 7.40779 4.93178 6.73905 4.37199 6.51111C3.78538 6.27312 3.34458 6.55804 3.09653 6.97537Z" fill="#0A0A0A"/>
<path d="M1.17746 9.05195C1.19925 9.27318 1.17746 9.41397 1.05176 9.49945C0.895891 9.60671 0.771865 9.55308 0.771865 9.55308C0.771865 9.55308 0.55901 9.34693 0.508729 8.93295C0.480237 8.70334 0.517109 8.36646 0.517109 8.36646C0.517109 8.36646 1.13724 8.65138 1.17746 9.05195Z" fill="#44484E"/>
<path d="M7.20279 10.1382C7.30838 10.1734 7.1324 11.236 7.22626 11.4002C7.32011 11.5662 8.01734 12.0137 8.97267 11.8963C9.92801 11.779 10.3537 11.1823 10.5062 10.8471C10.6034 10.636 10.6956 10.2924 10.766 10.2806C10.8364 10.2689 11.3325 11.06 11.6744 11.484C12.0163 11.9081 12.2292 12.2517 12.913 12.9237C13.5968 13.5958 14.4818 14.1154 14.4818 14.1154C14.4818 14.1154 14.2974 14.3484 14.1482 14.5327C13.9974 14.7171 13.7946 14.9651 13.7946 14.9651C13.7946 14.9651 12.7186 14.1506 12.1823 13.4617C11.6593 12.7897 11.1096 12.1209 11.0258 12.2768C10.9839 12.3539 11.3426 12.8466 11.4917 13.1198C11.7046 13.5087 11.9342 13.8874 12.023 14.0936C12.1085 14.293 12.4739 15.2283 12.6549 15.84C12.7722 16.2406 12.8476 16.7199 12.8795 16.7484C12.9683 16.8255 13.5281 17.3736 13.6706 17.5026C13.8114 17.6317 14.0711 17.9149 13.8834 18.1161C13.694 18.3172 13.2817 18.0155 13.1879 17.9451C13.094 17.8747 12.1856 17.278 12.0783 17.149C11.9728 17.0199 11.8169 16.2842 11.7482 16.0043C11.6711 15.6909 11.2169 14.6115 11.1465 14.4003C11.0761 14.1875 10.6504 13.4483 10.5331 13.2858C10.3504 13.0327 10.2146 12.6958 9.93136 12.7779C9.79057 12.8198 9.66655 12.8433 9.54755 12.8952C9.52409 13.0494 9.50565 15.1311 9.47045 15.3204C9.43526 15.5098 9.32967 17.0434 9.3414 17.1842C9.35313 17.325 10.0252 18.2099 10.109 18.3172C10.1911 18.4228 10.2146 18.6356 10.0738 18.7529C9.93304 18.8703 9.54252 18.7999 9.43693 18.7178C9.33134 18.6356 8.63412 17.9384 8.57546 17.739C8.51679 17.5378 8.52853 15.6741 8.52853 15.3674C8.52853 15.0607 8.59892 13.0075 8.55199 12.9137C8.4816 12.9019 8.35757 12.9137 7.957 12.8316C7.72739 12.7846 7.538 12.6723 7.4676 12.6656C7.43241 12.731 6.81898 14.1992 6.69998 14.6366C6.58266 15.0724 6.08656 17.2563 6.0279 17.3618C5.96924 17.4674 5.4966 17.8982 4.97871 18.0691C4.70719 18.158 3.88091 18.3641 3.71666 18.1513C3.55074 17.9384 4.17757 17.5144 4.50775 17.3367C4.83792 17.159 5.22676 16.9244 5.27536 16.8758C5.32229 16.8289 5.68767 14.7171 5.73627 14.469C5.78488 14.221 6.57428 12.3455 6.56255 12.2634C6.19718 11.9449 5.89047 11.3784 5.89047 11.3784C5.89047 11.3784 6.34467 11.2008 6.67484 10.8941C6.93463 10.6427 7.20279 10.1382 7.20279 10.1382Z" fill="#C84444"/>
<path d="M15.0165 14.4521C15.0165 14.4521 14.7902 14.7572 14.6461 14.9365C14.4617 15.1645 14.2958 15.3019 14.2958 15.3019C14.2958 15.3019 15.0936 15.6924 15.5712 15.8634C16.312 16.1265 16.7662 16.155 16.7662 16.155C16.7662 16.155 16.9925 15.8868 17.135 15.7142C17.3244 15.4863 17.4802 15.2416 17.4802 15.2416C17.4802 15.2416 16.6757 15.1443 16.1109 14.9499C15.3533 14.6918 15.0165 14.4521 15.0165 14.4521Z" fill="#C84444"/>
<path d="M18.179 15.3404C18.179 15.3404 17.9662 15.6554 17.817 15.8683C17.6997 16.0359 17.5254 16.2069 17.5254 16.2069C17.5254 16.2069 18.6668 16.2421 19.2768 16.0476C19.612 15.9404 20.0227 15.7594 20.1718 15.5633C20.2808 15.4225 20.3679 14.8325 20.3679 14.8325C20.3679 14.8325 20.0026 15.2331 19.2668 15.3119C18.7187 15.3722 18.179 15.3404 18.179 15.3404Z" fill="#C84444"/>
<path d="M17.4818 15.2416C17.4818 15.2416 17.5572 15.2517 17.8053 15.2902C18.1455 15.3422 18.1857 15.3338 18.1857 15.3338C18.1857 15.3338 18.945 14.0533 19.307 12.9689C19.6808 11.846 19.7193 10.4683 19.7193 10.4683C19.7193 10.4683 19.5182 10.1381 19.4394 10.0208C19.3606 9.90347 19.1645 9.65039 19.1645 9.65039C19.1645 9.65039 19.0372 11.5896 18.645 12.8047C18.1774 14.2561 17.4818 15.2416 17.4818 15.2416Z" fill="#838383"/>
<path d="M14.4818 14.1135C14.4818 14.1135 15.6316 12.4592 16.0271 11.2944C16.2048 10.7715 16.4578 9.71894 16.5232 9.27144C16.6556 8.3513 16.5701 7.54346 16.5701 7.54346C16.5701 7.54346 16.7428 7.60547 16.9539 7.72112C17.083 7.79151 17.2372 7.89877 17.2372 7.89877C17.2372 7.89877 17.3478 8.53734 17.1718 9.50273C17.0361 10.2519 16.8433 10.9961 16.6003 11.6849C16.2282 12.7341 15.0215 14.4571 15.0215 14.4571L14.4818 14.1135Z" fill="#838383"/>
</svg>
