<svg width="20" height="18" viewBox="0 0 20 18" fill="none" xmlns="http://www.w3.org/2000/svg">
<path d="M4.47071 10.6798C4.47071 10.6798 3.8422 11.2614 3.63773 11.8447C3.43326 12.4263 3.08799 13.8425 2.94553 13.9682C2.80307 14.0939 2.33211 14.3135 2.15948 14.3922C1.98685 14.471 1.60974 14.5498 1.60974 14.8163C1.60974 15.0828 1.955 15.0844 2.55334 14.9889C3.15168 14.8934 3.37124 14.8632 3.48186 14.7207C3.59248 14.5783 4.2059 12.3458 4.29976 12.2033C4.39362 12.0626 4.56792 11.6687 5.10258 11.2597C5.63723 10.8508 6.25065 10.348 6.25065 10.348L5.24336 9.71948L4.47071 10.6798Z" fill="#B34A4A"/>
<path d="M1.36334 5.30821C1.36334 5.30821 1.18233 4.88417 0.671145 5.01658C0.221971 5.1339 -0.0210526 5.81102 0.104649 6.12611C0.230351 6.4412 0.583992 6.58199 0.583992 6.58199L1.36334 5.30821Z" fill="#151413"/>
<path d="M1.77236 0.462848C1.64665 0.476256 1.44218 1.30421 0.843838 1.18689C0.401368 1.09974 0.486845 0.479608 1.04831 0.172896C1.55112 -0.101972 1.87459 0.00696935 2.18131 0.117587C2.63383 0.280161 3.08636 0.77794 3.30592 1.35952C3.52548 1.9411 3.78694 2.67185 3.89588 3.52997C4.0065 4.40318 3.94281 4.43502 3.94281 4.43502L3.51877 4.46687C3.51877 4.46687 3.59755 4.24731 3.44 3.29533C3.35117 2.75732 3.13329 2.08021 2.93719 1.58076C2.71596 1.02264 2.26008 0.409215 1.77236 0.462848Z" fill="#D82828"/>
<path d="M5.35068 1.04602C5.23503 1.02591 4.94173 1.4315 4.52943 1.19351C4.16406 0.982328 4.33669 0.439297 4.87972 0.385664C5.22665 0.350467 5.6641 0.600195 5.87863 0.818078C6.2088 1.15663 6.4535 1.71475 6.56245 2.28125C6.67642 2.86618 6.66301 3.41424 6.42166 4.20868C6.16188 5.05842 5.85516 5.41206 5.85516 5.41206L5.52499 5.0735C5.52499 5.0735 5.75293 4.75841 5.99763 4.08297C6.17528 3.59022 6.28087 3.04551 6.16355 2.40695C6.05293 1.81531 5.68086 1.10133 5.35068 1.04602Z" fill="#D82828"/>
<path d="M1.81254 4.63952C0.95106 5.04176 -0.165172 6.34739 0.0342752 7.8491C0.191821 9.02902 1.05665 10.2559 2.72429 10.633C4.39194 11.0101 5.41431 10.4754 5.41431 10.4754L6.2473 10.3497L6.97134 11.357L9.12671 11.3721L10.5429 10.7905C10.5429 10.7905 11.5301 12.195 11.8553 12.6895C12.1804 13.1856 13.2598 14.0588 13.2598 14.0588C13.2598 14.0588 13.5514 14.2767 13.8514 14.4443C14.1347 14.6018 15.4956 15.2622 16.7342 15.3208C18.8996 15.4247 19.5516 14.8214 19.689 14.6487C19.756 14.5633 19.8281 14.2264 19.8566 14.047C19.8784 13.9063 20.1097 12.5738 19.9354 11.5297C19.7946 10.6799 19.337 9.16981 17.6225 7.65971C15.9079 6.14961 13.5799 5.77251 12.1167 6.62225C10.7374 7.42339 10.2614 8.58823 10.2614 8.58823C10.2614 8.58823 9.82058 7.42172 8.62557 7.26752C7.65013 7.14182 7.22609 7.64463 7.22609 7.64463C7.22609 7.64463 7.31995 5.52111 5.18134 4.56074C3.61761 3.86184 2.2835 4.41996 1.81254 4.63952Z" fill="#D82828"/>
<path d="M8.02557 7.62777C7.55461 7.75515 7.36522 8.27304 7.53785 8.58814C7.71048 8.90323 8.03731 9.03228 8.40268 8.9334C8.87532 8.8077 9.06303 8.38366 8.95242 8.06857C8.84347 7.75515 8.43452 7.51883 8.02557 7.62777Z" fill="#AFAFAE"/>
<path d="M12.0832 8.36873C12.3027 8.80953 12.9564 8.82126 13.5614 8.44751C14.2218 8.03856 14.2536 7.45698 14.0173 7.17373C13.6922 6.78322 13.0268 6.84355 12.6178 7.11004C12.2089 7.37653 11.7966 7.79386 12.0832 8.36873Z" fill="#AFAFAE"/>
<path d="M2.59861 6.09427C2.34888 6.51663 2.28184 7.25575 2.9137 7.53397C3.63774 7.85242 4.08524 7.33285 4.25117 6.92055C4.40871 6.52668 4.43385 5.85795 3.87406 5.63001C3.28745 5.39201 2.84666 5.67694 2.59861 6.09427Z" fill="#0A0A0A"/>
<path d="M0.679538 8.17085C0.701326 8.39208 0.679538 8.53287 0.553836 8.61834C0.397966 8.72561 0.27394 8.67198 0.27394 8.67198C0.27394 8.67198 0.061085 8.46583 0.0108043 8.05185C-0.0176881 7.82223 0.0191844 7.48535 0.0191844 7.48535C0.0191844 7.48535 0.639313 7.77028 0.679538 8.17085Z" fill="#44484E"/>
<path d="M6.70487 9.25708C6.81046 9.29228 6.63447 10.3549 6.72833 10.5191C6.82219 10.6851 7.51942 11.1326 8.47475 11.0152C9.43008 10.8979 9.85579 10.3012 10.0083 9.96604C10.1055 9.75486 10.1977 9.41127 10.2681 9.39954C10.3385 9.38781 10.8346 10.1789 11.1765 10.6029C11.5184 11.027 11.7313 11.3705 12.4151 12.0426C13.0989 12.7147 13.9838 13.2343 13.9838 13.2343C13.9838 13.2343 13.7995 13.4673 13.6503 13.6516C13.4995 13.836 13.2967 14.084 13.2967 14.084C13.2967 14.084 12.2207 13.2695 11.6843 12.5806C11.1614 11.9086 10.6117 11.2398 10.5279 11.3957C10.486 11.4728 10.8446 11.9655 10.9938 12.2387C11.2067 12.6276 11.4363 13.0063 11.5251 13.2125C11.6106 13.4119 11.976 14.3472 12.157 14.9589C12.2743 15.3595 12.3497 15.8388 12.3816 15.8673C12.4704 15.9444 13.0302 16.4925 13.1726 16.6215C13.3134 16.7506 13.5732 17.0338 13.3855 17.235C13.1961 17.4361 12.7838 17.1344 12.6899 17.064C12.5961 16.9936 11.6877 16.3969 11.5804 16.2679C11.4748 16.1388 11.319 15.4031 11.2502 15.1232C11.1731 14.8097 10.7189 13.7304 10.6486 13.5192C10.5782 13.3064 10.1524 12.5672 10.0351 12.4047C9.85244 12.1516 9.71668 11.8147 9.43343 11.8968C9.29265 11.9387 9.16862 11.9622 9.04962 12.0141C9.02616 12.1683 9.00772 14.25 8.97253 14.4393C8.93733 14.6287 8.83174 16.1623 8.84347 16.3031C8.85521 16.4439 9.52729 17.3288 9.61109 17.4361C9.69322 17.5417 9.71668 17.7545 9.5759 17.8718C9.43511 17.9892 9.0446 17.9188 8.93901 17.8366C8.83342 17.7545 8.13619 17.0573 8.07753 16.8578C8.01887 16.6567 8.0306 14.793 8.0306 14.4863C8.0306 14.1796 8.101 12.1264 8.05407 12.0326C7.98367 12.0208 7.85965 12.0326 7.45908 11.9505C7.22946 11.9035 7.04007 11.7912 6.96968 11.7845C6.93448 11.8499 6.32106 13.3181 6.20206 13.7555C6.08474 14.1913 5.58863 16.3752 5.52997 16.4807C5.47131 16.5863 4.99867 17.0171 4.48078 17.188C4.20927 17.2769 3.38299 17.483 3.21874 17.2702C3.05281 17.0573 3.67964 16.6333 4.00982 16.4556C4.34 16.2779 4.72884 16.0433 4.77744 15.9947C4.82437 15.9478 5.18974 13.836 5.23835 13.5879C5.28695 13.3399 6.07636 11.4644 6.06463 11.3823C5.69925 11.0638 5.39254 10.4973 5.39254 10.4973C5.39254 10.4973 5.84674 10.3197 6.17692 10.013C6.4367 9.76156 6.70487 9.25708 6.70487 9.25708Z" fill="#C84444"/>
<path d="M14.5185 13.571C14.5185 13.571 14.2923 13.8761 14.1481 14.0554C13.9638 14.2834 13.7979 14.4208 13.7979 14.4208C13.7979 14.4208 14.5956 14.8113 15.0733 14.9823C15.8141 15.2454 16.2683 15.2739 16.2683 15.2739C16.2683 15.2739 16.4946 15.0057 16.637 14.8331C16.8264 14.6052 16.9823 14.3605 16.9823 14.3605C16.9823 14.3605 16.1778 14.2632 15.613 14.0688C14.8554 13.8107 14.5185 13.571 14.5185 13.571Z" fill="#C84444"/>
<path d="M17.6811 14.4593C17.6811 14.4593 17.4683 14.7743 17.3191 14.9872C17.2018 15.1548 17.0275 15.3258 17.0275 15.3258C17.0275 15.3258 18.1688 15.361 18.7789 15.1665C19.1141 15.0593 19.5247 14.8783 19.6739 14.6822C19.7828 14.5414 19.87 13.9514 19.87 13.9514C19.87 13.9514 19.5046 14.352 18.7689 14.4308C18.2208 14.4911 17.6811 14.4593 17.6811 14.4593Z" fill="#C84444"/>
<path d="M16.9839 14.3605C16.9839 14.3605 17.0593 14.3706 17.3074 14.4091C17.6476 14.4611 17.6878 14.4527 17.6878 14.4527C17.6878 14.4527 18.4471 13.1722 18.8091 12.0878C19.1828 10.9649 19.2214 9.58719 19.2214 9.58719C19.2214 9.58719 19.0203 9.25701 18.9415 9.13969C18.8627 9.02237 18.6666 8.76929 18.6666 8.76929C18.6666 8.76929 18.5392 10.7084 18.147 11.9236C17.6794 13.375 16.9839 14.3605 16.9839 14.3605Z" fill="#838383"/>
<path d="M13.9839 13.2324C13.9839 13.2324 15.1336 11.5781 15.5292 10.4133C15.7068 9.89038 15.9599 8.83783 16.0253 8.39033C16.1577 7.4702 16.0722 6.66235 16.0722 6.66235C16.0722 6.66235 16.2448 6.72437 16.456 6.84001C16.5851 6.91041 16.7393 7.01767 16.7393 7.01767C16.7393 7.01767 16.8499 7.65624 16.6739 8.62163C16.5381 9.37081 16.3454 10.115 16.1024 10.8038C15.7303 11.853 14.5236 13.576 14.5236 13.576L13.9839 13.2324Z" fill="#838383"/>
</svg>
