<svg width="18" height="18" viewBox="0 0 18 18" fill="none" xmlns="http://www.w3.org/2000/svg">
<path d="M14.1166 12.9166C13.3583 14.175 12.3999 13.775 11.4999 13.2416C10.5999 12.7083 9.74995 12.0666 9.20828 12.825C8.61661 13.475 9.07495 14.5166 9.30828 15.4333C9.54161 16.3583 9.55828 17.1583 8.08328 17.3333C6.91661 17.175 6.98328 16.2083 7.17495 15.1833C7.36661 14.1583 7.66661 13.075 6.91661 12.6916C6.31661 12.2916 5.89995 12.9833 5.37495 13.6666C4.83328 14.3416 4.21661 15 3.19995 14.5166C2.28328 13.7583 2.63328 13.3166 3.11661 12.75C3.59995 12.1833 4.22495 11.425 3.86661 10.0916C3.71661 9.54997 2.96661 9.67497 2.22495 9.65831C1.49995 9.64164 0.766613 9.49164 0.691613 8.40831C0.633279 7.74997 1.12495 7.48331 1.63328 7.27497C2.14995 7.06664 2.67495 6.91664 2.68328 6.39164C2.70828 5.88331 2.36661 5.52497 2.14995 5.14997C1.93328 4.77497 1.84161 4.38331 2.35828 3.79997C3.23328 3.08331 3.93328 3.69164 4.63328 4.34997C5.33328 5.00831 6.02495 5.69997 6.88328 5.15831C7.56661 4.70831 6.94161 3.91664 6.45828 3.14164C5.97495 2.36664 5.63328 1.62497 6.88328 1.28331C7.96661 0.983307 8.38328 1.72497 8.75828 2.58331C9.14161 3.44164 9.47495 4.41664 10.3916 4.59164C11.6999 4.83331 12.6499 3.29997 13.5583 2.08331C14.4666 0.866641 15.3583 -0.0416927 16.4999 1.45831C17.7499 3.03331 16.5583 3.76664 15.1666 4.41664C13.7749 5.02497 12.1749 5.55831 12.5583 6.73331C12.7833 7.41664 13.5166 7.04164 14.2916 6.78331C15.0583 6.52497 15.8833 6.38331 16.2833 7.55831C16.7083 8.79997 15.6999 9.08331 14.5666 9.19997C13.4333 9.31664 12.1666 9.26664 12.0833 9.83331C11.9916 10.425 12.7499 10.6666 13.4083 11.0166C14.0666 11.375 14.6249 11.85 14.1166 12.9166ZM16.0833 14.8333C15.2916 14.8333 14.8833 14.2166 14.8833 13.5833C14.8833 12.95 15.2833 12.3333 16.0833 12.3333C16.9166 12.3333 17.3333 12.95 17.3333 13.5833C17.3333 14.2166 16.9166 14.8333 16.0833 14.8333Z" fill="#D82828"/>
</svg>
