<svg width="309" height="931" viewBox="0 0 309 931" fill="none" xmlns="http://www.w3.org/2000/svg">
<path d="M135.45 874.613H173.865V911.932H135.45M135.45 818.636H173.865V855.954H135.45M135.45 762.659H173.865V799.977H135.45M1 930.591H308.315V744H1V930.591Z" fill="black"/>
<path d="M135.293 130.613H173.707V167.932H135.293M135.293 74.6362H173.707V111.954H135.293M135.293 18.6591H173.707V55.9772H135.293M0.84256 186.591H308.158V0H0.84256V186.591Z" fill="black"/>
<path d="M135.293 317.267H173.707V354.585H135.293M135.293 261.289H173.707V298.607H135.293M135.293 205.312H173.707V242.63H135.293M0.84256 373.244H308.158V186.653H0.84256V373.244Z" fill="black"/>
<path d="M135.293 503.92H173.707V541.238H135.293M135.293 447.942H173.707V485.261H135.293M135.293 391.965H173.707V429.283H135.293M0.84256 559.897H308.158V373.306H0.84256V559.897Z" fill="black"/>
<path d="M135.293 690.573H173.707V727.891H135.293M135.293 634.596H173.707V671.914H135.293M135.293 578.618H173.707V615.937H135.293M0.84256 746.55H308.158V559.959H0.84256V746.55Z" fill="black"/>
<path d="M135.293 130.613H173.707V167.932H135.293M135.293 74.6362H173.707V111.954H135.293M135.293 18.6591H173.707V55.9772H135.293M0.84256 186.591H308.158V0H0.84256V186.591Z" fill="black"/>
<path d="M135.293 317.267H173.707V354.585H135.293M135.293 261.289H173.707V298.607H135.293M135.293 205.312H173.707V242.63H135.293M0.84256 373.244H308.158V186.653H0.84256V373.244Z" fill="black"/>
<path d="M135.293 502.92H173.707V540.238H135.293M135.293 446.942H173.707V484.261H135.293M135.293 390.965H173.707V428.283H135.293M0.84256 558.897H308.158V372.306H0.84256V558.897Z" fill="black"/>
<path d="M135.293 689.573H173.707V726.891H135.293M135.293 633.596H173.707V670.914H135.293M135.293 577.618H173.707V614.937H135.293M0.84256 745.55H308.158V558.959H0.84256V745.55Z" fill="black"/>
</svg>
