<svg width="308" height="931" viewBox="0 0 308 931" fill="none" xmlns="http://www.w3.org/2000/svg">
<path d="M134.45 130.613H172.865V167.932H134.45M134.45 74.6362H172.865V111.954H134.45M134.45 18.6591H172.865V55.9772H134.45M0 186.591H307.315V0H0V186.591Z" fill="black"/>
<path d="M134.45 317.267H172.865V354.585H134.45M134.45 261.289H172.865V298.607H134.45M134.45 205.312H172.865V242.63H134.45M0 373.244H307.315V186.653H0V373.244Z" fill="black"/>
<path d="M134.45 502.92H172.865V540.238H134.45M134.45 446.942H172.865V484.261H134.45M134.45 390.965H172.865V428.283H134.45M0 558.897H307.315V372.306H0V558.897Z" fill="black"/>
<path d="M134.45 688.573H172.865V725.891H134.45M134.45 632.596H172.865V669.914H134.45M134.45 576.618H172.865V613.937H134.45M0 744.55H307.315V557.959H0V744.55Z" fill="black"/>
<path d="M134.45 874.226H172.865V911.544H134.45M134.45 818.249H172.865V855.567H134.45M134.45 762.272H172.865V799.59H134.45M0 930.203H307.315V743.612H0V930.203Z" fill="black"/>
</svg>
