<svg width="309" height="931" viewBox="0 0 309 931" fill="none" xmlns="http://www.w3.org/2000/svg">
<path d="M135.135 130.613H173.55V167.932H135.135M135.135 74.6362H173.55V111.954H135.135M135.135 18.6591H173.55V55.9772H135.135M0.68512 186.591H308V0H0.68512V186.591Z" fill="black"/>
<path d="M135.135 317.267H173.55V354.585H135.135M135.135 261.289H173.55V298.607H135.135M135.135 205.312H173.55V242.63H135.135M0.68512 373.244H308V186.653H0.68512V373.244Z" fill="black"/>
<path d="M135.135 502.92H173.55V540.238H135.135M135.135 446.942H173.55V484.261H135.135M135.135 390.965H173.55V428.283H135.135M0.68512 558.897H308V372.306H0.68512V558.897Z" fill="black"/>
<path d="M135.45 688.613H173.865V725.932H135.45M135.45 632.636H173.865V669.954H135.45M135.45 576.659H173.865V613.977H135.45M1 744.591H308.315V558H1V744.591Z" fill="black"/>
<path d="M135.45 874.613H173.865V911.932H135.45M135.45 818.636H173.865V855.954H135.45M135.45 762.659H173.865V799.977H135.45M1 930.591H308.315V744H1V930.591Z" fill="black"/>
</svg>
