<svg width="928" height="1024" viewBox="0 0 928 1024" fill="none" xmlns="http://www.w3.org/2000/svg">
<path d="M134.45 130.613H172.865V167.932H134.45M134.45 74.6362H172.865V111.954H134.45M134.45 18.6591H172.865V55.9772H134.45M0 186.591H307.315V0H0V186.591Z" fill="black"/>
<path d="M134.45 316.267H172.865V353.585H134.45M134.45 260.289H172.865V297.607H134.45M134.45 204.312H172.865V241.63H134.45M0 372.244H307.315V185.653H0V372.244Z" fill="black"/>
<path d="M134.45 501.92H172.865V539.238H134.45M134.45 445.942H172.865V483.261H134.45M134.45 389.965H172.865V427.283H134.45M0 557.897H307.315V371.306H0V557.897Z" fill="black"/>
<path d="M134.45 687.573H172.865V724.891H134.45M134.45 631.596H172.865V668.914H134.45M134.45 575.618H172.865V612.937H134.45M0 743.55H307.315V556.959H0V743.55Z" fill="black"/>
<path d="M134.45 873.226H172.865V910.544H134.45M134.45 817.249H172.865V854.567H134.45M134.45 761.272H172.865V798.59H134.45M0 929.203H307.315V742.612H0V929.203Z" fill="black"/>
<path d="M134.45 1054.23H172.865V1091.54H134.45M134.45 998.249H172.865V1035.57H134.45M134.45 942.272H172.865V979.59H134.45M0 1110.2H307.315V923.612H0V1110.2Z" fill="black"/>
<path d="M754.45 1054.23H792.865V1091.54H754.45M754.45 998.249H792.865V1035.57H754.45M754.45 942.272H792.865V979.59H754.45M620 1110.2H927.315V923.612H620V1110.2Z" fill="black"/>
<path d="M754.45 130.613H792.865V167.932H754.45M754.45 74.6362H792.865V111.954H754.45M754.45 18.6591H792.865V55.9772H754.45M620 186.591H927.315V0H620V186.591Z" fill="black"/>
<path d="M754.45 316.267H792.865V353.585H754.45M754.45 260.289H792.865V297.607H754.45M754.45 204.312H792.865V241.63H754.45M620 372.244H927.315V185.653H620V372.244Z" fill="black"/>
<path d="M754.45 501.92H792.865V539.238H754.45M754.45 445.942H792.865V483.261H754.45M754.45 389.965H792.865V427.283H754.45M620 557.897H927.315V371.306H620V557.897Z" fill="black"/>
<path d="M754.45 687.573H792.865V724.891H754.45M754.45 631.596H792.865V668.914H754.45M754.45 575.618H792.865V612.937H754.45M620 743.55H927.315V556.959H620V743.55Z" fill="black"/>
<path d="M754.45 873.226H792.865V910.544H754.45M754.45 817.249H792.865V854.567H754.45M754.45 761.272H792.865V798.59H754.45M620 929.203H927.315V742.612H620V929.203Z" fill="black"/>
<path d="M444.45 1054.23H482.865V1091.54H444.45M444.45 998.249H482.865V1035.57H444.45M444.45 942.272H482.865V979.59H444.45M310 1110.2H617.315V923.612H310V1110.2Z" fill="black"/>
<path d="M444.45 130.613H482.865V167.932H444.45M444.45 74.6362H482.865V111.954H444.45M444.45 18.6591H482.865V55.9772H444.45M310 186.591H617.315V0H310V186.591Z" fill="black"/>
<path d="M444.45 316.267H482.865V353.585H444.45M444.45 260.289H482.865V297.607H444.45M444.45 204.312H482.865V241.63H444.45M310 372.244H617.315V185.653H310V372.244Z" fill="black"/>
<path d="M444.45 501.92H482.865V539.238H444.45M444.45 445.942H482.865V483.261H444.45M444.45 389.965H482.865V427.283H444.45M310 557.897H617.315V371.306H310V557.897Z" fill="black"/>
<path d="M444.45 687.573H482.865V724.891H444.45M444.45 631.596H482.865V668.914H444.45M444.45 575.618H482.865V612.937H444.45M310 743.55H617.315V556.959H310V743.55Z" fill="black"/>
<path d="M444.45 873.226H482.865V910.544H444.45M444.45 817.249H482.865V854.567H444.45M444.45 761.272H482.865V798.59H444.45M310 929.203H617.315V742.612H310V929.203Z" fill="black"/>
</svg>
