<svg width="12" height="20" viewBox="0 0 12 20" fill="none" xmlns="http://www.w3.org/2000/svg">
<path d="M9.12506 19.0999L0.700064 10.6999C0.600064 10.5999 0.529064 10.4916 0.487064 10.3749C0.445064 10.2582 0.424398 10.1332 0.425064 9.9999C0.425064 9.86657 0.446064 9.74157 0.488064 9.6249C0.530064 9.50824 0.600731 9.3999 0.700064 9.2999L9.12506 0.874902C9.3584 0.641569 9.65006 0.524902 10.0001 0.524902C10.3501 0.524902 10.6501 0.649902 10.9001 0.899902C11.1501 1.1499 11.2751 1.44157 11.2751 1.7749C11.2751 2.10824 11.1501 2.3999 10.9001 2.6499L3.55006 9.9999L10.9001 17.3499C11.1334 17.5832 11.2501 17.8709 11.2501 18.2129C11.2501 18.5549 11.1251 18.8506 10.8751 19.0999C10.6251 19.3499 10.3334 19.4749 10.0001 19.4749C9.66673 19.4749 9.37506 19.3499 9.12506 19.0999Z" fill="black"/>
</svg>
