<svg width="12" height="20" viewBox="0 0 12 20" fill="none" xmlns="http://www.w3.org/2000/svg">
<path d="M2.87494 19.0999L11.2999 10.6999C11.3999 10.5999 11.4709 10.4916 11.5129 10.3749C11.5549 10.2582 11.5756 10.1332 11.5749 9.9999C11.5749 9.86657 11.5539 9.74157 11.5119 9.6249C11.4699 9.50824 11.3993 9.3999 11.2999 9.2999L2.87494 0.874902C2.6416 0.641569 2.34994 0.524902 1.99994 0.524902C1.64994 0.524902 1.34994 0.649902 1.09994 0.899902C0.849936 1.1499 0.724936 1.44157 0.724936 1.7749C0.724936 2.10824 0.849936 2.3999 1.09994 2.6499L8.44994 9.9999L1.09994 17.3499C0.866602 17.5832 0.749935 17.8709 0.749935 18.2129C0.749935 18.5549 0.874935 18.8506 1.12494 19.0999C1.37494 19.3499 1.6666 19.4749 1.99994 19.4749C2.33327 19.4749 2.62494 19.3499 2.87494 19.0999Z" fill="black"/>
</svg>
